<svg viewBox="0 0 242 57" fill="#000" xmlns="http://www.w3.org/2000/svg">
    <path d="m10 10v35h35v-35z"/>
    <path fill="#FFE012" d="m9.534 9v37.218h37.218v-37.218zm7.986 29.51c-.07-.099-.141-.198-.212-.296 4.45-3.517 8.9-7.033 13.471-10.646-4.601-3.579-9.104-7.081-13.606-10.583.06-.093.119-.185.179-.278 7.158 3.564 14.316 7.128 21.761 10.835-7.4 3.76-14.497 7.364-21.593 10.968z"/>
    <path d="m71.662 19.099h-3.861l-5.148 16.11-5.114-16.11h-3.897l6.854 20.809h4.28z"/>
    <path d="m81.601 40.08v-21.06h-3.697v21.06z"/>
    <path d="m103.839 34.979v-10.782c0-.673-.107-1.37-.562-2.006-.423-.6-1.762-2.108-2.533-2.573-.604-.386-1.482-.598-2.153-.598h-9.649v21.06h9.649c.742 0 1.549-.315 2.114-.634.775-.417 2.185-1.829 2.608-2.468.419-.626.526-1.37.526-1.999zm-11.198 1.584v-14.018h5.602c.069 0 .285 0 .311.032.428.214 1.131.848 1.555 1.545.031.075.031.18.031.18v10.602c0 .423-1.054 1.336-1.549 1.62-.037.039-.244.039-.244.039z"/>
    <path d="m123.981 40.08v-3.517h-9.535v-5.182h8.869v-3.523h-8.869v-5.313h9.535v-3.525h-13.238v21.06z"/>
    <path d="m118.42 16.86 3.322-3.413-4.016-.019-2.654 3.445z"/>
    <path d="m146.979 35.078v-11.022c0-.67-.138-1.373-.561-2.001-.457-.603-1.829-2.116-2.567-2.544-.567-.347-1.452-.626-2.182-.626h-5.365c-.775 0-1.618.279-2.178.626-.746.428-2.153 1.941-2.578 2.544-.418.629-.558 1.331-.558 2.001v11.022c0 .665.141 1.37.558 2.012.425.595 1.832 2.111 2.578 2.531.561.353 1.404.637 2.178.637h5.365c.73 0 1.615-.284 2.182-.637.738-.42 2.11-1.936 2.567-2.531.424-.642.561-1.346.561-2.012zm-12.292-10.917s0-.104.039-.175c.423-.637 1.156-1.336 1.544-1.555.034-.029.178-.029.178-.029h5.078c.032 0 .102 0 .17.029.388.219 1.127.918 1.554 1.555.034.031.034.175.034.175v10.878s0 .078-.034.149c-.428.631-1.166 1.3-1.554 1.513-.068.039-.17.039-.17.039h-5.078c-.034 0-.104 0-.178-.039-.388-.214-1.121-.882-1.544-1.513-.039-.037-.039-.149-.039-.149z"/>
    <path d="m167.286 22.545v-3.525h-15.106v3.525h5.707v17.535h3.697v-17.535z"/>
    <path d="m187.985 26.979v-3.105c0-.734-.206-1.503-.631-2.137-.313-.469-1.412-1.587-1.9-1.936-.705-.496-1.662-.78-2.497-.78h-9.9v21.06h3.695v-8.313h4.055l3.901 8.313h4.027l-4.198-8.59c.323-.109.639-.282.918-.493.488-.35 1.587-1.414 1.9-1.871.424-.627.63-1.371.63-2.148zm-3.695-.032c0 .068-.033.141-.033.141-.282.496-.987 1.156-1.3 1.156h-6.205v-5.699h6.372c.357.032.921.733 1.133 1.12.033.075.033.248.033.248z"/>
    <path d="m210.454 35.078v-11.022c0-.67-.138-1.373-.561-2.001-.464-.603-1.834-2.116-2.577-2.544-.561-.347-1.441-.626-2.182-.626h-5.357c-.769 0-1.612.279-2.176.626-.749.428-2.15 1.941-2.572 2.544-.423.629-.564 1.331-.564 2.001v11.022c0 .665.141 1.37.564 2.012.422.595 1.824 2.111 2.572 2.531.564.353 1.407.637 2.176.637h5.357c.741 0 1.62-.284 2.182-.637.743-.42 2.114-1.936 2.577-2.531.423-.642.561-1.346.561-2.012zm-12.29-10.917s0-.104.029-.175c.421-.637 1.169-1.336 1.553-1.555.031-.029.175-.029.175-.029h5.075c.034 0 .107 0 .172.029.391.219 1.13.918 1.547 1.555.039.031.039.175.039.175v10.878s0 .078-.039.149c-.418.631-1.156 1.3-1.547 1.513-.066.039-.172.039-.172.039h-5.075c-.031 0-.102 0-.175-.039-.384-.214-1.132-.882-1.553-1.513-.029-.037-.029-.149-.029-.149z"/>
    <path d="m232.321 40.08v-21.06h-3.695v14.158l-7.22-14.158h-3.99v21.06h3.705v-13.978l7.293 13.978z"/>
</svg>
